<svg xmlns="http://www.w3.org/2000/svg" xmlns:xlink="http://www.w3.org/1999/xlink">
    <symbol viewBox="0 0 4400 1500" id="logo">
        <title>Bfy.me</title>
        <path class="fil0" d="M197 517l1 -330c0,-27 -11,-50 -28,-70 -17,-19 -39,-34 -63,-41 -12,-4 -35,-7 -45,4 -4,4 -5,11 -5,17 1,31 0,63 0,94 0,62 -1,124 -1,186 0,55 0,109 0,164 0,35 0,70 1,104 2,62 75,103 124,115 8,2 21,1 22,-10 44,-235 394,-223 394,36 0,141 -93,213 -216,217 -95,3 -214,-70 -291,-127 -1,-1 -3,-2 -5,-2 -18,2 -36,52 -40,67 -5,18 -12,66 5,80 100,82 236,133 362,130 190,-4 322,-154 322,-358 0,-194 -139,-362 -321,-362 -58,0 -113,17 -162,50l-53 35zm1935 474c49,0 88,40 88,89 0,49 -40,89 -88,89 -49,0 -88,-40 -88,-89 0,-49 40,-89 88,-89zm1200 -176l11 171 0 1c-1,147 107,175 220,150 66,-14 123,-39 184,-68l16 19c151,171 427,132 572,-17 14,-15 21,-37 24,-57 3,-21 1,-77 -23,-86 -2,-1 -10,0 -12,0 -25,24 -58,52 -100,76 -160,93 -256,81 -338,-4 65,-35 429,-208 450,-232 17,-20 9,-51 1,-73 -118,-328 -639,-299 -669,106 -3,40 0,81 9,120l7 29c-47,24 -126,52 -172,17 -38,-29 -33,-77 -33,-121l0 -1 0 -1c1,-9 1,-19 1,-28 0,-202 -151,-365 -338,-365l-1 0c-85,0 -165,34 -228,96l-23 23 -23 -23c-62,-62 -143,-96 -228,-96l-1 0c-186,0 -338,163 -338,365 0,9 0,19 1,28l0 2 0 1c0,42 0,84 -1,126 0,36 0,71 0,107 0,17 -1,34 0,51 0,9 3,18 9,24 17,17 54,12 74,7 18,-5 38,-14 52,-26 4,-3 14,-14 14,-20l0 -1 0 -300 0 -1c2,-112 85,-203 189,-203 70,0 135,42 167,110l6 11 -2 13c-4,24 -6,47 -6,71 0,9 0,19 1,28l0 1 0 1c0,42 0,84 -1,126 0,36 0,71 0,107 0,17 -1,34 0,51 0,9 3,18 9,24 17,17 54,12 74,7 18,-5 38,-14 52,-26 4,-3 14,-14 14,-20l0 -1 0 -297 0 -2 0 -2c2,-112 85,-203 189,-203 104,0 188,91 189,203l0 3zm865 -110l-48 24 -330 159c-16,-69 -22,-141 61,-227 89,-82 258,-75 316,45zm-3375 404c0,9 2,17 9,23 17,16 54,12 74,7 18,-5 37,-14 52,-26 4,-3 14,-13 14,-19l0 -1 0 -300 16 -11c35,-25 69,-53 104,-78 352,-258 149,99 240,319 36,87 133,149 304,149l1 0c97,0 139,-17 210,-83 4,112 -74,205 -214,204 -98,0 -201,-22 -290,-67 -9,-5 -23,-10 -32,-3 -22,17 -7,82 0,104 3,10 7,20 11,29 11,23 88,46 109,52 42,11 87,20 129,24 24,3 48,4 72,4 187,0 337,-96 339,-314 1,-157 1,-315 1,-472 0,-36 0,-71 0,-107 0,-17 1,-34 0,-51 0,-9 -2,-17 -9,-23 -17,-16 -54,-12 -74,-7 -18,5 -37,14 -52,26 -4,3 -14,13 -14,19l0 1 0 297 0 2 0 2c-2,112 -108,221 -212,221 -384,0 117,-748 -540,-481l-101 54 0 -170 0 -2 0 -1c1,-111 88,-218 193,-218l1 0 1 0c11,1 19,5 29,6 4,1 9,1 14,0 6,-2 11,-6 14,-12l0 -1 0 -1c13,-24 27,-47 39,-71 5,-10 13,-29 9,-41 -9,-26 -90,-25 -111,-25l-1 0c-186,0 -337,163 -337,364 0,9 0,19 1,28l0 1 -1 649z"/>
    </symbol>
    <symbol viewBox="0 0 5000 4900" id="logar">
        <title>Logar</title>
         <path d="M3618 2395c321,123 701,524 889,773 134,178 244,438 317,648 72,209 253,803 24,966 -37,27 -81,38 -127,38l-4450 0c-137,0 -231,-95 -231,-231 0,-427 95,-835 308,-1206 70,-122 143,-242 235,-349 71,-82 152,-159 227,-237 96,-98 240,-185 365,-80 54,46 97,130 97,202 0,65 -91,158 -132,205 -88,99 -175,197 -254,304 -206,277 -347,583 -361,929l3942 0c-27,-509 -393,-1093 -798,-1376 -70,-49 -141,-97 -214,-141 -44,-26 -91,-53 -138,-72 -38,-16 -81,-29 -121,-13 -36,14 -72,40 -109,57 -48,22 -90,43 -140,60 -196,67 -333,64 -536,64 -679,0 -1344,-664 -1344,-1344l0 -171c0,-679 664,-1344 1344,-1344l171 0c679,0 1344,664 1344,1344 0,494 -64,608 -308,972zm-2088 -887c0,119 46,287 90,397 77,194 292,398 482,481 364,158 794,85 1076,-197 162,-162 262,-365 279,-594 16,-208 -38,-419 -148,-596 -114,-183 -284,-327 -488,-399 -238,-84 -489,-61 -721,31 -330,132 -570,526 -570,877z"/>
   </symbol>
   <symbol viewBox="0 0 1000 1200" id="facebook">
        <title>Facebook</title>
         <path  d="M438 383l0 -87c0,-42 28,-52 48,-52 20,0 122,0 122,0l0 -187 -168 -1c-187,0 -229,139 -229,228l0 98 -108 0 0 218 109 0c0,247 0,544 0,544l218 0c0,0 0,-301 0,-544l162 0 8 -86 12 -132 -173 0z"/>
   </symbol>
   <symbol viewBox="0 0 1000 1000" id="instagram">
        <title>Instagram</title>
         <path d="M292 101c-106,0 -192,86 -192,192l0 415c0,106 86,192 192,192l415 0c106,0 192,-86 192,-192l0 -415c0,-106 -86,-192 -192,-192l-415 0zm524 138c0,33 -27,59 -59,59 -33,0 -59,-27 -59,-59 0,-33 27,-59 59,-59 33,0 59,27 59,59zm-317 97c-91,0 -164,74 -164,164 0,91 74,164 164,164 91,0 164,-74 164,-164 0,-91 -74,-164 -164,-164zm0 411c-136,0 -247,-111 -247,-247 0,-136 111,-247 247,-247 136,0 247,111 247,247 0,136 -111,247 -247,247zm208 235l-415 0c-151,0 -274,-123 -274,-274l0 -415c0,-151 123,-274 274,-274l415 0c151,0 274,123 274,274l0 415c0,151 -123,274 -274,274z"/>

  </symbol>
   <symbol viewBox="0 0 1000 820" id="twitter">
        <title>Twitter</title>
         <path  d="M1000 105c-37,16 -76,27 -118,32 42,-25 75,-65 90,-112 -40,23 -84,40 -130,49 -37,-39 -91,-64 -150,-64 -113,0 -205,90 -205,202 0,16 2,31 5,46 -171,-8 -322,-89 -423,-211 -18,30 -28,65 -28,102 0,70 36,132 91,168 -34,-1 -65,-10 -93,-25 0,1 0,2 0,3 0,26 5,51 14,73 25,63 81,111 151,125 -17,5 -35,7 -54,7 -13,0 -26,-1 -39,-4 26,80 102,139 192,140 -70,54 -159,87 -255,87 -17,0 -33,-1 -49,-3 91,57 199,91 315,91 321,0 518,-222 570,-453 9,-41 14,-82 14,-122 0,-9 0,-17 -1,-26 40,-28 75,-64 102,-105z"/>

  </symbol>
   <symbol viewBox="0 0 1000 1000" id="whatsapp">
        <title>WhatsApp</title>
        <path  d="M509 897c-84,0 -162,-25 -227,-68l-159 50 52 -152c-49,-68 -79,-151 -79,-240 0,-13 1,-27 2,-40 20,-207 197,-370 411,-370 217,0 395,167 411,378 1,11 1,21 1,32 0,226 -185,410 -413,410zm491 -422c-7,-263 -224,-475 -491,-475 -264,0 -479,207 -490,466 0,7 -1,14 -1,22 0,92 26,178 70,251l-89 261 272 -86c70,39 151,61 237,61 271,0 491,-218 491,-487 0,-4 0,-8 0,-12z"/>
        <path  d="M720 594c-12,-6 -71,-35 -82,-39 -11,-4 -19,-6 -27,6 -8,12 -31,39 -38,47 -7,8 -14,9 -26,3 -12,-6 -51,-19 -97,-59 -36,-32 -60,-71 -67,-83 -7,-12 -1,-18 5,-24 5,-5 12,-14 18,-21 2,-2 3,-4 4,-6 3,-4 5,-9 8,-14 4,-8 2,-15 -1,-21 -3,-6 -27,-65 -37,-89 -10,-24 -20,-20 -27,-20 -7,0 -15,-1 -23,-1 -8,0 -21,3 -32,15 -11,12 -42,41 -42,100 0,14 2,28 6,41 12,42 38,77 43,83 6,8 83,132 206,180 122,48 122,32 144,30 22,-2 71,-29 81,-57 10,-28 10,-52 7,-57 -3,-5 -11,-8 -23,-14z"/>
   </symbol>
   <symbol  viewBox="0 0 38 31" id="google">
        <title>Google</title>
        <path id="a" d="M29.163 13.778h-13.61V18.6h8.303c-1.238 4.192-4.922 7.233-9.275 7.233-5.369 0-9.72-4.626-9.72-10.333S9.212 5.167 14.58 5.167c2.704 0 5.15 1.173 6.911 3.067l3.293-3.805C22.155 1.689 18.555 0 14.581 0 6.528 0 0 6.94 0 15.5 0 24.06 6.528 31 14.581 31c7.055 0 13.23-5.325 14.582-12.4v-4.822z"/>
        <path id="b" d="M7.954 2.96H5.17V0H2.784v2.96H0v2.535h2.784v2.96H5.17v-2.96h2.784V2.96z"/>
   </symbol>
</svg>