<svg width="33" height="33" viewBox="0 0 33 33" version="1.1" xmlns="http://www.w3.org/2000/svg" xmlns:xlink="http://www.w3.org/1999/xlink">
<title>icon-instagram</title>
<desc>Created using Figma</desc>
<g id="Canvas" transform="translate(-1247 -7618)">
<g id="icon-instagram">
<g id="Group">
<g id="post instagram">
<g id="Vector">
<use xlink:href="#path0_fill" transform="translate(1247 7618)" fill="#FFFFFF"/>
</g>
</g>
</g>
</g>
</g>
<defs>
<path id="path0_fill" d="M 29.7 0L 3.3 0C 1.485 0 0 1.485 0 3.3L 0 29.7C 0 31.515 1.485 33 3.3 33L 29.7 33C 31.515 33 33 31.515 33 29.7L 33 3.3C 33 1.485 31.515 0 29.7 0ZM 16.5 9.9C 20.13 9.9 23.1 12.87 23.1 16.5C 23.1 20.13 20.13 23.1 16.5 23.1C 12.87 23.1 9.9 20.13 9.9 16.5C 9.9 12.87 12.87 9.9 16.5 9.9ZM 4.125 29.7C 3.63 29.7 3.3 29.37 3.3 28.875L 3.3 14.85L 6.765 14.85C 6.6 15.345 6.6 16.005 6.6 16.5C 6.6 21.945 11.055 26.4 16.5 26.4C 21.945 26.4 26.4 21.945 26.4 16.5C 26.4 16.005 26.4 15.345 26.235 14.85L 29.7 14.85L 29.7 28.875C 29.7 29.37 29.37 29.7 28.875 29.7L 4.125 29.7ZM 29.7 7.425C 29.7 7.92 29.37 8.25 28.875 8.25L 25.575 8.25C 25.08 8.25 24.75 7.92 24.75 7.425L 24.75 4.125C 24.75 3.63 25.08 3.3 25.575 3.3L 28.875 3.3C 29.37 3.3 29.7 3.63 29.7 4.125L 29.7 7.425Z"/>
</defs>
</svg>
