<svg width="38" height="30" viewBox="0 0 38 30" version="1.1" xmlns="http://www.w3.org/2000/svg" xmlns:xlink="http://www.w3.org/1999/xlink">
<title>icon-twitter</title>
<desc>Created using Figma</desc>
<g id="Canvas" transform="translate(-1333 -7620)">
<g id="icon-twitter">
<g id="Group">
<g id="Group">
<g id="Vector">
<use xlink:href="#path0_fill" transform="translate(1333 7620)" fill="#FFFFFF"/>
</g>
</g>
</g>
</g>
</g>
<defs>
<path id="path0_fill" d="M 38 3.54947C 36.6014 4.1518 35.1007 4.5603 33.5239 4.74267C 35.1339 3.80565 36.3663 2.3194 36.9504 0.553872C 35.4402 1.42161 33.7732 2.0517 31.997 2.39327C 30.5747 0.918553 28.5516 1.14183e-07 26.3076 1.14183e-07C 22.0025 1.14183e-07 18.5119 3.39257 18.5119 7.57442C 18.5119 8.16752 18.5808 8.7468 18.7138 9.30073C 12.236 8.98451 6.49199 5.96815 2.64759 1.38468C 1.97557 2.50171 1.59327 3.80329 1.59327 5.19268C 1.59327 7.82137 2.97052 10.1408 5.06016 11.4978C 3.78262 11.4562 2.58109 11.1147 1.52919 10.5469L 1.52919 10.6415C 1.52919 14.311 4.2172 17.3736 7.78138 18.0706C 7.12836 18.2414 6.43977 18.336 5.72739 18.336C 5.22401 18.336 4.73722 18.2875 4.25992 18.1952C 5.25245 21.207 8.13046 23.3971 11.5403 23.4572C 8.8737 25.4881 5.51131 26.6951 1.85927 26.6951C 1.23003 26.6951 0.610236 26.6582 2.94956e-12 26.5913C 3.45024 28.7445 7.54636 30 11.9488 30C 26.2887 30 34.1272 18.456 34.1272 8.44452L 34.101 7.46369C 35.6326 6.40199 36.9575 5.06806 38 3.54947Z"/>
</defs>
</svg>
