<svg width="18" height="35" viewBox="0 0 18 35" version="1.1" xmlns="http://www.w3.org/2000/svg" xmlns:xlink="http://www.w3.org/1999/xlink">
<title>icon-facebook</title>
<desc>Created using Figma</desc>
<g id="Canvas" transform="translate(-1085 -7616)">
<g id="icon-facebook">
<g id="Group">
<g id="Vector">
<use xlink:href="#path0_fill" transform="translate(1085 7616)" fill="#FFFFFF"/>
</g>
</g>
</g>
</g>
<defs>
<path id="path0_fill" d="M 11.9771 11.4683L 11.9771 8.45254C 11.9771 7.99982 12.0001 7.64916 12.0468 7.40145C 12.0933 7.15337 12.1992 6.90938 12.3635 6.66852C 12.5276 6.4278 12.7934 6.26162 13.1603 6.16953C 13.5277 6.07729 14.016 6.03132 14.6256 6.03132L 17.9535 6.03132L 17.9535 0L 12.6333 0C 9.55493 0 7.344 0.661823 6.00019 1.98547C 4.65655 3.30941 3.9848 5.25955 3.9848 7.83662L 3.9848 11.4682L 2.7056e-07 11.4682L 2.7056e-07 17.5L 3.98456 17.5L 3.98456 35L 11.977 35L 11.977 17.5L 17.2968 17.5L 18 11.4683L 11.9771 11.4683Z"/>
</defs>
</svg>
